<svg xmlns="http://www.w3.org/2000/svg" width="153" height="34" viewBox="0 0 153 34" fill="none">
  <path fill-rule="evenodd" clip-rule="evenodd" d="M14.5127 11.9486C13.4253 12.9827 12.3859 14.0525 11.3937 15.1446C11.0339 15.5355 10.6832 15.9304 10.3411 16.3254C9.34897 17.4658 8.4008 18.6292 7.49072 19.814L0.0268555 9.82715H7.43818L10.2492 13.6132C10.9078 13.2404 12.5014 12.4149 14.5114 11.9486H14.5127ZM16.0374 21.3938C15.015 22.872 14.0793 24.359 13.248 25.8413C13.0661 26.1656 12.8882 26.4892 12.7155 26.8088C12.135 27.9008 11.611 28.9841 11.156 30.0492C12.2302 29.0191 13.7635 28.2117 13.7635 28.2117L17.4195 33.1032H24.7403L16.038 21.3938H16.0374Z" fill="url(#paint0_linear_28456_239319)"/>
  <path fill-rule="evenodd" clip-rule="evenodd" d="M42.6816 0C33.4376 1.0873 22.487 10.2843 15.3528 20.471C14.1052 22.2466 12.9791 24.0531 12.0001 25.8509C11.9397 25.9572 11.8786 26.0683 11.8228 26.1752C11.199 27.3292 10.6402 28.4831 10.151 29.6195C9.64017 30.8003 9.2068 31.963 8.85156 33.1041H0.027832C2.38446 29.1135 5.03526 24.839 8.1759 20.7293C9.22388 19.3534 10.3329 17.9909 11.4984 16.6681C11.6849 16.4595 11.8707 16.2509 12.0572 16.0424C13.4348 14.5197 14.8991 13.0462 16.4586 11.6481C23.1364 5.66795 31.5839 1.09605 42.6816 0Z" fill="url(#paint1_linear_28456_239319)"/>
  <path d="M105.348 32.848V15.472H98.4678V10.448H118.532V15.472H111.684V32.848H105.348Z" fill="#0C80E8"/>
  <path d="M88.6856 33.296C86.8509 33.296 85.0803 33.072 83.3736 32.624C81.6883 32.1547 80.3123 31.5573 79.2456 30.832L81.3256 26.16C82.3283 26.8 83.4803 27.3333 84.7816 27.76C86.1043 28.1653 87.4163 28.368 88.7176 28.368C89.5923 28.368 90.2963 28.2933 90.8296 28.144C91.3629 27.9733 91.7469 27.76 91.9816 27.504C92.2376 27.2267 92.3656 26.9067 92.3656 26.544C92.3656 26.032 92.1309 25.6267 91.6616 25.328C91.1923 25.0293 90.5843 24.784 89.8376 24.592C89.0909 24.4 88.2589 24.208 87.3416 24.016C86.4456 23.824 85.5389 23.5787 84.6216 23.28C83.7256 22.9813 82.9043 22.5973 82.1576 22.128C81.4109 21.6373 80.8029 21.008 80.3336 20.24C79.8643 19.4507 79.6296 18.4587 79.6296 17.264C79.6296 15.92 79.9923 14.704 80.7176 13.616C81.4643 12.528 82.5736 11.6533 84.0456 10.992C85.5176 10.3307 87.3523 10 89.5496 10C91.0216 10 92.4616 10.1707 93.8696 10.512C95.2989 10.832 96.5683 11.312 97.6776 11.952L95.7256 16.656C94.6589 16.08 93.6029 15.6533 92.5576 15.376C91.5123 15.0773 90.4989 14.928 89.5176 14.928C88.6429 14.928 87.9389 15.024 87.4056 15.216C86.8723 15.3867 86.4883 15.6213 86.2536 15.92C86.0189 16.2187 85.9016 16.56 85.9016 16.944C85.9016 17.4347 86.1256 17.8293 86.5736 18.128C87.0429 18.4053 87.6509 18.64 88.3976 18.832C89.1656 19.0027 89.9976 19.184 90.8936 19.376C91.8109 19.568 92.7176 19.8133 93.6136 20.112C94.5309 20.3893 95.3629 20.7733 96.1096 21.264C96.8563 21.7333 97.4536 22.3627 97.9016 23.152C98.3709 23.92 98.6056 24.8907 98.6056 26.064C98.6056 27.3653 98.2323 28.5707 97.4856 29.68C96.7603 30.768 95.6616 31.6427 94.1896 32.304C92.7389 32.9653 90.9043 33.296 88.6856 33.296Z" fill="#0C80E8"/>
  <path d="M65.7776 19.12H76.1776V23.856H65.7776V19.12ZM66.2256 27.952H77.9376V32.848H59.9536V10.448H77.5216V15.344H66.2256V27.952Z" fill="#0C80E8"/>
  <path d="M36 32.848V10.448H47.456C50.4 10.448 52.5973 10.992 54.048 12.08C55.4987 13.1467 56.224 14.5547 56.224 16.304C56.224 17.456 55.9147 18.4693 55.296 19.344C54.6987 20.1973 53.8453 20.88 52.736 21.392C51.648 21.8827 50.3467 22.128 48.832 22.128L49.472 20.592C51.0507 20.592 52.4267 20.8373 53.6 21.328C54.7733 21.7973 55.68 22.4907 56.32 23.408C56.9813 24.304 57.312 25.4027 57.312 26.704C57.312 28.6453 56.5227 30.16 54.944 31.248C53.3867 32.3147 51.104 32.848 48.096 32.848H36ZM42.272 28.272H47.584C48.672 28.272 49.4933 28.0907 50.048 27.728C50.624 27.344 50.912 26.768 50.912 26C50.912 25.232 50.624 24.6667 50.048 24.304C49.4933 23.92 48.672 23.728 47.584 23.728H41.824V19.344H46.624C47.6907 19.344 48.4907 19.1627 49.024 18.8C49.5573 18.4373 49.824 17.8933 49.824 17.168C49.824 16.4427 49.5573 15.9093 49.024 15.568C48.4907 15.2053 47.6907 15.024 46.624 15.024H42.272V28.272Z" fill="#0C80E8"/>
  <defs>
    <linearGradient id="paint0_linear_28456_239319" x1="7.10134" y1="37.7033" x2="13.9944" y2="17.5209" gradientUnits="userSpaceOnUse">
      <stop stop-color="#FDC10A"/>
      <stop offset="1" stop-color="#FF7019"/>
    </linearGradient>
    <linearGradient id="paint1_linear_28456_239319" x1="13.7362" y1="39.9697" x2="20.6299" y2="19.788" gradientUnits="userSpaceOnUse">
      <stop stop-color="#FDC10A"/>
      <stop offset="1" stop-color="#FF7019"/>
    </linearGradient>
  </defs>
</svg>